<svg id="Capa_1" enable-background="new 0 0 512 512" height="512" viewBox="0 0 512 512" width="512" xmlns="http://www.w3.org/2000/svg"><g><path d="m405.988 251.004c-6.721 0-12.836-4.55-14.54-11.366-2.01-8.036 2.877-16.181 10.914-18.189l57.276-14.319c6.689-1.673 11.361-7.656 11.361-14.552v-56.578c0-8.271-6.729-15-15-15h-50c-8.284 0-15-6.716-15-15s6.716-15 15-15h50c24.813 0 45 20.187 45 45v56.577c0 20.687-14.017 38.638-34.085 43.655l-57.277 14.319c-1.22.306-2.445.453-3.649.453z" fill="#d0d5f7"/><path d="m406 151h-300c-8.284 0-15-6.716-15-15v-70c0-8.284 6.716-15 15-15h300c8.284 0 15 6.716 15 15v70c0 8.284-6.716 15-15 15z" fill="#f0f1ff"/><path d="m406 51h-150v100h150c8.284 0 15-6.716 15-15v-70c0-8.284-6.716-15-15-15z" fill="#dce7fb"/><path d="m91 136v150c0 63.411 51.589 115 115 115h100c63.411 0 115-51.589 115-115v-150z" fill="#f09040"/><path d="m256 401h50c63.411 0 115-51.589 115-115v-150h-165z" fill="#cd7444"/><g><path d="m241.555 316.286c-13.551 0-23.388-1.691-24.381-1.869-6.18-1.105-11.018-5.943-12.124-12.124-.451-2.519-10.665-62.065 21.837-94.565 32.502-32.501 92.047-22.288 94.565-21.837 6.181 1.106 11.018 5.943 12.124 12.124.45 2.519 10.665 62.063-21.837 94.565-19.697 19.698-49.334 23.706-70.184 23.706z" fill="#85e17c"/><path d="m321.453 185.891c-1.869-.335-35.134-6.039-65.453 4.315v125.41c18.662-1.773 40.267-7.562 55.74-23.036 32.502-32.502 22.287-92.047 21.837-94.565-1.106-6.181-5.943-11.018-12.124-12.124z" fill="#59b154"/><path d="m191.532 342.936c-3.839 0-7.678-1.465-10.606-4.394-5.858-5.857-5.858-15.355 0-21.213l80-80c5.857-5.857 15.355-5.857 21.213 0s5.858 15.355 0 21.213l-80 80c-2.929 2.929-6.768 4.394-10.607 4.394z" fill="#59b154"/><path d="m260.926 237.329-4.926 4.926v42.426l26.139-26.139c5.858-5.857 5.858-15.355 0-21.213-5.858-5.857-15.356-5.857-21.213 0z" fill="#00864f"/></g><path d="m497 386h-482c-8.284 0-15 6.716-15 15 0 33.137 26.863 60 60 60h392c33.137 0 60-26.863 60-60 0-8.284-6.716-15-15-15z" fill="#f0f1ff"/><path d="m497 386h-241v75h196c33.137 0 60-26.863 60-60 0-8.284-6.716-15-15-15z" fill="#dce7fb"/></g></svg>